<svg width="159" height="48" viewBox="0 0 159 48" fill="none" xmlns="http://www.w3.org/2000/svg">
<path d="M9.04879 28.7493C9.0446 29.3437 8.80186 29.9125 8.37307 30.3328C7.94428 30.7531 7.36392 30.991 6.75753 30.9951H2.23391C1.93933 31.0015 1.64655 30.9485 1.37369 30.8395C1.10083 30.7305 0.853693 30.5678 0.647585 30.3614C0.433158 30.1503 0.265179 29.8983 0.154023 29.621C0.0428679 29.3437 -0.00910291 29.047 0.00132142 28.7493V11.0715C-0.00889914 10.7737 0.0431648 10.4771 0.154308 10.1998C0.265451 9.92248 0.433322 9.67042 0.647585 9.45911C0.853861 9.25296 1.10103 9.0904 1.37385 8.98146C1.64668 8.87252 1.93938 8.8195 2.23391 8.82568H6.75753C7.36392 8.82978 7.94428 9.06771 8.37307 9.48799C8.80186 9.90827 9.0446 10.4771 9.04879 11.0715V28.7493Z" fill="#0B0C2F"/>
<path d="M34.0392 28.7365C34.0518 29.2358 33.8887 29.7238 33.5781 30.1157C33.267 30.5014 32.8445 30.7823 32.3679 30.9203C30.8194 31.2875 29.251 31.5658 27.6706 31.7538C26.1704 31.9498 24.6596 32.0553 23.1466 32.0697C21.4923 32.0917 19.8404 31.9376 18.2189 31.6101C16.8641 31.3257 15.5926 30.7359 14.5016 29.8859C12.7336 28.469 11.8496 26.6108 11.8496 24.3113V15.461C11.8496 13.0858 12.7334 11.2468 14.5008 9.94382C15.3456 9.25423 16.5559 8.73696 18.1317 8.39202C19.6305 8.00953 21.9745 7.81829 25.1636 7.81829V2.24287C25.1535 1.94569 25.2046 1.64962 25.3136 1.37287C25.4226 1.09612 25.5873 0.844554 25.7976 0.633673C25.9999 0.427888 26.2423 0.265623 26.5099 0.156891C26.7775 0.0481579 27.0647 -0.00473535 27.3536 0.00147473H31.7914C32.0896 -0.00950872 32.3868 0.0409537 32.6645 0.149707C32.9422 0.258461 33.1944 0.423168 33.4054 0.633531C33.6163 0.843894 33.7815 1.09539 33.8906 1.3723C33.9996 1.64921 34.0502 1.94557 34.0392 2.24287V28.7365ZM22.8582 12.1852C22.4535 12.16 22.0508 12.2603 21.7055 12.4724C21.4995 12.6094 21.3241 12.7873 21.1902 12.995C21.0564 13.2027 20.9669 13.4357 20.9274 13.6794C20.7916 14.2635 20.7239 14.8614 20.7257 15.461V24.3113C20.7257 25.4607 20.8794 26.3035 21.1866 26.8399C21.4939 27.3763 22.0895 27.6445 22.9735 27.6445C23.7213 27.6346 24.462 27.4986 25.1642 27.2421V12.5874C24.4222 12.3307 23.6435 12.1949 22.8582 12.1852Z" fill="#0B0C2F"/>
<path d="M59.2474 28.7354C59.2599 29.2349 59.0968 29.7231 58.7862 30.1151C58.4751 30.5009 58.0526 30.7819 57.576 30.92C56.0275 31.2874 54.4591 31.5658 52.8786 31.7538C51.3782 31.9499 49.8673 32.0554 48.3541 32.0698C46.6998 32.0918 45.0478 31.9377 43.4263 31.6101C42.0714 31.3256 40.7999 30.7356 39.7089 29.8852C37.9411 28.4678 37.0574 26.6089 37.0577 24.3086V11.0855C37.0449 10.586 37.208 10.0978 37.5186 9.70581C37.8299 9.32012 38.2525 9.03909 38.7291 8.9007C40.2775 8.53315 41.8458 8.25482 43.4263 8.06709C44.9266 7.87084 46.4376 7.76531 47.9507 7.75109C49.6053 7.72906 51.2575 7.88318 52.8792 8.21085C54.2339 8.49604 55.5054 9.08598 56.5968 9.93569C58.3636 11.2391 59.2473 13.0789 59.248 15.4549L59.2474 28.7354ZM46.3945 26.8381C46.7016 27.3754 47.2973 27.6437 48.1814 27.643C48.9292 27.6331 49.6699 27.497 50.3721 27.2405V15.4549C50.383 14.8371 50.325 14.2201 50.1992 13.615C50.1493 13.379 50.0521 13.1555 49.9135 12.9579C49.7748 12.7604 49.5976 12.5928 49.3923 12.4652C49.1995 12.2738 48.796 12.1781 48.1821 12.1779C47.8333 12.1824 47.4858 12.2209 47.1445 12.2928C46.7599 12.37 46.3565 12.4659 45.9342 12.5803V24.3086C45.9338 25.4583 46.0872 26.3015 46.3945 26.8381Z" fill="#0B0C2F"/>
<path d="M84.4553 24.3029C84.4553 26.6016 83.5715 28.4597 81.8041 29.8775C80.9198 30.567 79.7094 31.0842 78.1731 31.429C76.6745 31.8115 74.3307 32.0031 71.1418 32.0038V39.2999C71.1396 39.8795 70.9123 40.4357 70.5075 40.8517C70.3136 41.0721 70.0741 41.2479 69.8054 41.367C69.5367 41.486 69.2453 41.5455 68.9513 41.5413H64.5133C64.2152 41.5522 63.918 41.5017 63.6403 41.393C63.3626 41.2842 63.1105 41.1195 62.8995 40.9091C62.6886 40.6988 62.5234 40.4473 62.4144 40.1704C62.3053 39.8935 62.2547 39.5972 62.2657 39.2999V11.0849C62.253 10.5856 62.416 10.0976 62.7266 9.7057C63.038 9.3202 63.4605 9.03928 63.9371 8.90089C65.4855 8.53325 67.0539 8.25481 68.6345 8.06696C70.1348 7.87078 71.6458 7.7653 73.1589 7.75108C74.8132 7.72912 76.4652 7.88319 78.0867 8.21066C79.4414 8.49566 80.7128 9.08538 81.8041 9.93485C83.571 11.2378 84.4547 13.0768 84.4553 15.452V24.3029ZM73.3892 27.6361C74.1963 27.6361 74.763 27.3584 75.0893 26.803C75.4156 26.2476 75.579 25.4143 75.5794 24.3029V15.4526C75.5904 14.8351 75.5324 14.2182 75.4066 13.6134C75.3567 13.3775 75.2594 13.1541 75.1207 12.9565C74.982 12.759 74.8047 12.5915 74.5994 12.4641C74.407 12.2727 73.9846 12.177 73.3322 12.1769C72.5845 12.1871 71.8439 12.3231 71.1415 12.5791V27.2341C71.8642 27.4877 72.6232 27.6234 73.3892 27.6361Z" fill="#0B0C2F"/>
<path d="M109.663 28.7988C109.663 29.7942 109.158 30.502 108.15 30.9222C107.568 31.0746 106.918 31.2181 106.2 31.3527C105.483 31.4873 104.755 31.6117 104.018 31.7259C103.28 31.84 102.553 31.926 101.835 31.9841C101.118 32.0421 100.468 32.0706 99.8858 32.0696C97.9575 32.0898 96.0307 31.9555 94.1245 31.668C92.6047 31.4456 91.1648 30.8539 89.9345 29.9461C88.1496 28.5311 87.2573 26.6754 87.2576 24.379V6.75989C87.2465 6.46299 87.2976 6.16702 87.4077 5.89048C87.5178 5.61395 87.6846 5.36278 87.8976 5.1527C88.1106 4.94262 88.3653 4.77814 88.6457 4.66953C88.9261 4.56092 89.2262 4.51052 89.5273 4.52149H94.0083C94.3 4.51549 94.5898 4.56841 94.86 4.67698C95.1302 4.78556 95.375 4.9475 95.5794 5.15285C95.7915 5.36356 95.9577 5.61481 96.0678 5.89116C96.1779 6.16751 96.2295 6.46314 96.2196 6.75989V8.94139H102.912C103.213 8.93042 103.513 8.98082 103.793 9.08942C104.074 9.19803 104.329 9.36252 104.542 9.5726C104.755 9.78268 104.921 10.0338 105.031 10.3104C105.142 10.5869 105.193 10.8829 105.182 11.1798C105.188 11.4674 105.134 11.7532 105.024 12.0196C104.914 12.2859 104.75 12.5273 104.542 12.7287C104.328 12.938 104.073 13.102 103.793 13.2105C103.513 13.3191 103.213 13.37 102.912 13.36H96.2198V24.3796C96.1955 24.9516 96.3048 25.5214 96.5395 26.045C96.691 26.3961 96.944 26.6955 97.2668 26.9059C97.887 27.4036 98.7212 27.6523 99.7692 27.6521C100.908 27.6592 102.046 27.5825 103.174 27.4224C104.201 27.2699 105.433 27.0213 106.869 26.6764C107.145 26.5993 107.434 26.5774 107.719 26.6119C108.004 26.6464 108.279 26.7367 108.528 26.8774C108.78 27.0102 109.001 27.1938 109.176 27.4162C109.352 27.6386 109.478 27.895 109.547 28.1686C109.624 28.5508 109.662 28.7609 109.663 28.7988Z" fill="#0B0C2F"/>
<path d="M120.346 24.3483C120.322 24.9222 120.431 25.494 120.666 26.0195C120.817 26.372 121.07 26.6726 121.393 26.8838C122.013 27.3836 122.847 27.6334 123.895 27.6331C125.033 27.6403 126.171 27.5632 127.298 27.4025C128.325 27.2494 129.556 26.9997 130.992 26.6534C131.416 26.4974 131.884 26.5077 132.301 26.6822C132.651 26.8412 132.959 27.0779 133.202 27.3739C133.417 27.6309 133.585 27.9236 133.697 28.2383C133.779 28.4083 133.81 28.5987 133.784 28.7857C133.799 29.1562 133.714 29.5241 133.539 29.8516C133.363 30.1792 133.103 30.4547 132.785 30.65C132.526 30.8127 132.242 30.9314 131.944 31.0011C131.449 31.1235 130.908 31.2398 130.322 31.35C129.604 31.4843 128.877 31.6093 128.141 31.7248C127.404 31.8403 126.677 31.9267 125.959 31.984C125.241 32.0413 124.591 32.0699 124.011 32.0699C122.083 32.0902 120.157 31.9553 118.251 31.6666C116.732 31.4433 115.293 30.8491 114.063 29.9376C112.279 28.5168 111.387 26.6535 111.387 24.3476V11.0935C111.374 10.5928 111.539 10.1034 111.852 9.71049C112.166 9.32379 112.593 9.04206 113.074 8.90345C114.637 8.53502 116.22 8.25603 117.815 8.06785C119.329 7.87113 120.854 7.76535 122.382 7.75109C124.051 7.72904 125.719 7.88353 127.355 8.21195C128.723 8.49769 130.006 9.08906 131.107 9.94092C132.891 11.2475 133.783 13.0916 133.784 15.4734C133.784 17.8939 132.891 19.7573 131.107 21.0634C130.254 21.7171 129.033 22.2549 127.444 22.6768C125.853 23.0227 123.487 23.1957 120.347 23.1957L120.346 24.3483ZM122.673 18.8158C123.081 18.8412 123.488 18.7405 123.836 18.5276C124.223 18.2971 124.485 17.8841 124.621 17.2887C124.757 16.693 124.825 16.0841 124.825 15.4734C124.836 14.8541 124.778 14.2355 124.65 13.6291C124.6 13.3925 124.502 13.1684 124.362 12.9703C124.222 12.7723 124.043 12.6043 123.836 12.4765C123.642 12.2847 123.215 12.1887 122.557 12.1885C121.802 12.1988 121.055 12.3352 120.346 12.5918V18.4116C121.094 18.6697 121.88 18.8062 122.673 18.8158Z" fill="#0B0C2F"/>
<path d="M156.753 13.273C156.578 13.2859 156.402 13.2664 156.234 13.2155C154.966 12.909 153.756 12.6596 152.603 12.4675C152.014 12.3698 151.431 12.2969 150.852 12.2491C149.905 12.1785 148.953 12.2362 148.022 12.4206C147.933 12.4373 147.846 12.4533 147.761 12.4686C147.378 12.5298 147.013 12.6774 146.695 12.9002C146.386 13.1391 146.147 13.4572 146.003 13.8208C145.805 14.3454 145.698 14.8999 145.686 15.4604V28.7504C145.684 29.3305 145.457 29.8873 145.052 30.3036C144.859 30.5243 144.619 30.7004 144.35 30.8196C144.082 30.9388 143.79 30.9984 143.496 30.9942H139.058C138.76 31.0052 138.463 30.9547 138.185 30.8458C137.908 30.7369 137.655 30.572 137.444 30.3614C137.233 30.1508 137.068 29.8991 136.959 29.6219C136.85 29.3447 136.799 29.048 136.81 28.7504V15.4594C136.81 13.0816 137.694 11.2406 139.462 9.9362C140.576 9.09292 141.978 8.51757 143.669 8.21013C145.535 7.88885 147.425 7.73487 149.318 7.75004C151.098 7.75855 152.873 7.93188 154.62 8.2678C155.004 8.34498 155.426 8.44081 155.888 8.5553C156.349 8.66979 156.887 8.80407 157.501 8.95814C158.5 9.38049 159 10.0708 159 11.0292C159 11.068 158.961 11.2791 158.885 11.6621C158.616 12.7363 157.905 13.2733 156.753 13.273Z" fill="#0B0C2F"/>
<path d="M8.66184 5.93557C8.6543 6.1347 8.57687 6.32492 8.44297 6.47324C8.30904 6.61908 8.13318 6.72038 7.93929 6.76338C7.31157 6.8708 6.67817 6.94229 6.0422 6.9775C5.43802 7.01815 4.83191 7.02251 4.2272 6.99057C3.56586 6.95808 2.9099 6.85557 2.27044 6.68479C1.73646 6.53781 1.2434 6.27135 0.828989 5.9058C0.158568 5.29833 -0.0484615 2.96778 0.00927405 2.0526L0.056238 1.30894C0.0634731 1.10966 0.140859 0.919219 0.2749 0.770841C0.408982 0.625281 0.584798 0.524152 0.778578 0.481128C1.40628 0.373582 2.03969 0.302088 2.67566 0.267002C3.27984 0.226189 3.88595 0.221755 4.49067 0.253726C5.15198 0.286038 5.80794 0.388326 6.44743 0.558856C6.98132 0.706146 7.47433 0.972654 7.88888 1.33806C8.56188 1.90079 8.76977 4.22363 8.7101 5.16921L8.66184 5.93557Z" fill="url(#paint0_linear)"/>
<path fill-rule="evenodd" clip-rule="evenodd" d="M116.803 35.3003C116.022 35.3003 115.319 35.7731 115.024 36.4963L111.417 45.3558C110.903 46.6185 111.832 47.9998 113.195 47.9998H146.752C147.533 47.9998 148.236 47.527 148.531 46.8039L152.138 37.9443C152.652 36.6816 151.723 35.3003 150.36 35.3003H116.803ZM119.246 44.3862C119.287 44.422 119.333 44.4399 119.385 44.4399H122.956C123.012 44.4399 123.058 44.422 123.094 44.3862C123.135 44.3503 123.156 44.3043 123.156 44.2479V43.4339C123.156 43.3775 123.135 43.3315 123.094 43.2956C123.058 43.2547 123.012 43.2342 122.956 43.2342H120.652V39.2559C120.652 39.1996 120.634 39.1535 120.598 39.1177C120.562 39.0819 120.516 39.0639 120.46 39.0639H119.385C119.333 39.0639 119.287 39.0819 119.246 39.1177C119.211 39.1535 119.193 39.1996 119.193 39.2559V44.2479C119.193 44.2991 119.211 44.3452 119.246 44.3862ZM124.919 44.3939C124.955 44.4246 124.993 44.4399 125.034 44.4399H126.033C126.155 44.4399 126.242 44.3836 126.294 44.271L126.57 43.526H128.582L128.859 44.271C128.91 44.3836 128.997 44.4399 129.12 44.4399H130.118C130.159 44.4399 130.195 44.4246 130.226 44.3939C130.262 44.358 130.28 44.3196 130.28 44.2787C130.28 44.2479 130.277 44.2249 130.272 44.2095L128.482 39.2867C128.431 39.1382 128.329 39.0639 128.175 39.0639H126.977C126.824 39.0639 126.721 39.1382 126.67 39.2867L124.881 44.2095C124.875 44.2249 124.873 44.2479 124.873 44.2787C124.873 44.3196 124.888 44.358 124.919 44.3939ZM127.576 40.4156L128.26 42.374H126.893L127.576 40.4156ZM132.451 44.3862C132.492 44.422 132.538 44.4399 132.589 44.4399H135.031C135.666 44.4399 136.153 44.2966 136.491 44.0099C136.834 43.7231 137.005 43.3212 137.005 42.8041C137.005 42.5379 136.933 42.2998 136.79 42.0899C136.647 41.8748 136.47 41.7212 136.26 41.6291C136.419 41.5471 136.562 41.4166 136.69 41.2374C136.823 41.0582 136.89 40.8457 136.89 40.5999C136.89 40.1084 136.731 39.7295 136.414 39.4633C136.096 39.1971 135.613 39.0639 134.962 39.0639H132.589C132.533 39.0639 132.487 39.0844 132.451 39.1254C132.415 39.1612 132.397 39.2073 132.397 39.2636V44.2479C132.397 44.2991 132.415 44.3452 132.451 44.3862ZM135.239 41.0377C135.136 41.1401 134.99 41.1913 134.801 41.1913H133.841V40.1007H134.801C134.996 40.1007 135.141 40.1519 135.239 40.2543C135.341 40.3516 135.392 40.4796 135.392 40.6383C135.392 40.8022 135.341 40.9353 135.239 41.0377ZM135.331 43.2342C135.223 43.3468 135.07 43.4031 134.87 43.4031H133.841V42.1974H134.87C135.065 42.1974 135.218 42.2563 135.331 42.374C135.444 42.4867 135.5 42.63 135.5 42.8041C135.5 42.9731 135.444 43.1164 135.331 43.2342ZM140.131 44.3017C140.479 44.4451 140.902 44.5167 141.398 44.5167C141.854 44.5167 142.259 44.4502 142.612 44.3171C142.965 44.1788 143.242 43.9817 143.441 43.7257C143.641 43.4697 143.741 43.1676 143.741 42.8195C143.741 42.502 143.672 42.2409 143.533 42.0361C143.4 41.8262 143.19 41.6572 142.904 41.5292C142.622 41.3961 142.241 41.286 141.759 41.199C141.339 41.1119 141.053 41.0275 140.899 40.9455C140.746 40.8585 140.669 40.7407 140.669 40.5923C140.669 40.4438 140.728 40.3311 140.845 40.2543C140.963 40.1775 141.13 40.1391 141.345 40.1391C141.534 40.1391 141.693 40.1775 141.821 40.2543C141.949 40.326 142.028 40.4156 142.059 40.5231C142.12 40.6153 142.207 40.6614 142.32 40.6614H143.395C143.441 40.6614 143.48 40.646 143.51 40.6153C143.541 40.5795 143.556 40.5385 143.556 40.4924C143.546 40.2671 143.451 40.0393 143.272 39.8089C143.098 39.5734 142.845 39.3788 142.512 39.2252C142.184 39.0665 141.795 38.9871 141.345 38.9871C140.914 38.9871 140.536 39.0563 140.208 39.1945C139.885 39.3327 139.635 39.5273 139.455 39.7782C139.281 40.0239 139.194 40.3055 139.194 40.623C139.194 41.0889 139.348 41.4473 139.655 41.6982C139.962 41.9491 140.426 42.1359 141.045 42.2588C141.362 42.3254 141.606 42.3868 141.775 42.4431C141.944 42.4943 142.066 42.5558 142.143 42.6275C142.22 42.694 142.259 42.7811 142.259 42.8886C142.259 43.0371 142.184 43.1548 142.036 43.2419C141.887 43.3238 141.675 43.3647 141.398 43.3647C141.163 43.3647 140.973 43.3263 140.83 43.2495C140.692 43.1676 140.589 43.0652 140.523 42.9423C140.477 42.8911 140.433 42.8553 140.392 42.8348C140.356 42.8143 140.308 42.8041 140.246 42.8041H139.225C139.179 42.8041 139.138 42.8195 139.102 42.8502C139.071 42.8809 139.056 42.9193 139.056 42.9654C139.066 43.2419 139.161 43.4979 139.34 43.7334C139.519 43.9689 139.783 44.1583 140.131 44.3017Z" fill="url(#paint1_linear)"/>
<defs>
<linearGradient id="paint0_linear" x1="7.45165e-05" y1="7.01165" x2="7.63982" y2="-0.820769" gradientUnits="userSpaceOnUse">
<stop stop-color="#FF219E"/>
<stop offset="1" stop-color="#FFBA00"/>
</linearGradient>
<linearGradient id="paint1_linear" x1="111.273" y1="47.9998" x2="120.939" y2="23.1224" gradientUnits="userSpaceOnUse">
<stop stop-color="#FF219E"/>
<stop offset="1" stop-color="#FFBA00"/>
</linearGradient>
</defs>
</svg>
